<svg width="36" height="36" xmlns="http://www.w3.org/2000/svg">

 <g>
  <title>background</title>
  <rect fill="none" id="canvas_background" height="38" width="38" y="-1" x="-1"/>
 </g>
 <g>
  <title>Layer 1</title>
  <g y="1.127315" x="2.904757" id="svg_5">
   <path id="svg_26" fill="#fff" d="m32.73,0l-14.33,0c0.7,1.9 1.5,3.98 2.26,5.66c1.48,3.24 8.3,17.3 9.7,20.32c0.07,0.13 0.04,0.24 -0.15,0.24c-2,0.05 -3.4,-0.68 -4.5,-2.42l-5.9,-9.68c-0.9,-1.55 -1.6,-2.75 -2.4,-3.63c-0.7,-0.9 -1.4,-1.4 -2.5,-1.5c-0.7,-0.2 -1.4,0 -2,0.5c-1.2,1 -2.8,2.5 -3.8,3.2c-2.7,2.1 -5.2,0.3 -4.6,-0.4c1.69,-1.79 4.29,-4.29 5.19,-6.69c0.5,-1.33 0.4,-2.8 0.3,-5.6l-6.7,0c-1.82,0 -3.3,1.47 -3.3,3.27l0,29.46c0,1.8 1.47,3.27 3.27,3.27l29.46,0c1.8,0 3.27,-1.47 3.27,-3.27l0,-29.46c0,-1.8 -1.47,-3.27 -3.27,-3.27zm-25.48,22.6c0.75,-1.2 5.4,-8.32 7.04,-10.84c0.2,-0.38 0.3,-0.48 0.6,-0.5l0.1,0c0.3,0 0.8,0.13 1.2,0.44c0.7,0.45 1.6,1.42 1.8,1.9c0.1,0.2 0.1,0.28 -0.1,0.5c-1.3,1.7 -8,10.76 -9.2,12.25c-0.2,0.2 -0.4,0.25 -0.6,0.23c-0.9,-0.2 -1.5,-0.7 -1.7,-1.43c-0.2,-0.8 0,-1.58 0.6,-2.56l0.26,0.01zm25.22,6.84c0,1.75 -1.48,3.26 -3.27,3.26l-23,0c-1.75,0 -3.2,-1.5 -3.2,-3.2l0,-0.1l29.47,0l0,0.1l0,-0.06z" />
  </g>
 </g>
</svg>